<mxfile host="app.diagrams.net" modified="2023-11-17T11:56:22.356Z" agent="Mozilla/5.0 (Windows NT 10.0; Win64; x64) AppleWebKit/537.36 (KHTML, like Gecko) Chrome/119.0.0.0 Safari/537.36" etag="cCO7ueikeDO-YnWNvXMn" version="22.1.2" type="github">
  <diagram name="Page-1" id="bopPC6Q0unw4LHxkG6He">
    <mxGraphModel dx="2849" dy="1943" grid="1" gridSize="10" guides="1" tooltips="1" connect="1" arrows="1" fold="1" page="0" pageScale="1" pageWidth="850" pageHeight="1100" math="0" shadow="0">
      <root>
        <mxCell id="0" />
        <mxCell id="1" parent="0" />
        <mxCell id="6MORBjaquWV6y_gQg165-1" value="&lt;font style=&quot;font-size: 15px;&quot;&gt;DI0: Feedback DG Power Relay&lt;br&gt;DI1:&amp;nbsp;Feedback Alarm Relay&lt;br&gt;DI2:&amp;nbsp;Feedback EMG Relay_NC&lt;br&gt;DI3:&amp;nbsp;Feedback EMG Relay_NO&lt;br&gt;DI4:&amp;nbsp;Feedback Mains Relay&lt;br&gt;DI5:&amp;nbsp;PCD Logic Selection&lt;/font&gt;" style="shape=parallelogram;html=1;strokeWidth=2;perimeter=parallelogramPerimeter;whiteSpace=wrap;rounded=1;arcSize=12;size=0.23;fillColor=default;strokeColor=default;" parent="1" vertex="1">
          <mxGeometry x="-460" y="-180" width="350" height="190" as="geometry" />
        </mxCell>
        <mxCell id="6MORBjaquWV6y_gQg165-2" value="&lt;font style=&quot;font-size: 20px;&quot;&gt;T_Amb = 80C&lt;br&gt;EB1 = 0.20kPa&lt;br&gt;SLNCR_BP = 0.30kPa&lt;br&gt;P_OEM = 6.70kPa&lt;br&gt;&lt;/font&gt;" style="shape=parallelogram;html=1;strokeWidth=2;perimeter=parallelogramPerimeter;whiteSpace=wrap;rounded=1;arcSize=12;size=0.23;" parent="1" vertex="1">
          <mxGeometry x="-465" y="90" width="300" height="165" as="geometry" />
        </mxCell>
        <mxCell id="6MORBjaquWV6y_gQg165-3" value="&lt;font style=&quot;font-size: 20px;&quot;&gt;T01 = 100C&lt;br&gt;T02 = 200C&lt;br&gt;T03 = 300C&lt;br&gt;T04 = 400C&lt;br&gt;T05 = 500C&lt;br&gt;T06 = 600C&lt;br&gt;T07 = 700C&lt;br&gt;&lt;/font&gt;" style="shape=parallelogram;html=1;strokeWidth=2;perimeter=parallelogramPerimeter;whiteSpace=wrap;rounded=1;arcSize=12;size=0.23;" parent="1" vertex="1">
          <mxGeometry x="-450" y="310" width="270" height="200" as="geometry" />
        </mxCell>
        <mxCell id="6MORBjaquWV6y_gQg165-4" value="&lt;font style=&quot;font-size: 20px;&quot;&gt;P01 = 1kPa&lt;br style=&quot;border-color: var(--border-color);&quot;&gt;P02 = 2kPa&lt;br style=&quot;border-color: var(--border-color);&quot;&gt;P03 = 3kPa&lt;br style=&quot;border-color: var(--border-color);&quot;&gt;P04 = 4kPa&lt;br style=&quot;border-color: var(--border-color);&quot;&gt;P05 = 5kPa&lt;br style=&quot;border-color: var(--border-color);&quot;&gt;P06 = 6kPa&lt;br style=&quot;border-color: var(--border-color);&quot;&gt;P07 = 1kPa&lt;br&gt;P08 = 2kPa&lt;br&gt;P09 = 3kPa&lt;br&gt;P010 = 4kPa&lt;br style=&quot;border-color: var(--border-color);&quot;&gt;P011 = 5kPa&lt;br style=&quot;border-color: var(--border-color);&quot;&gt;P012= 6kPa&lt;br style=&quot;border-color: var(--border-color);&quot;&gt;&lt;/font&gt;" style="shape=parallelogram;html=1;strokeWidth=2;perimeter=parallelogramPerimeter;whiteSpace=wrap;rounded=1;arcSize=12;size=0.23;" parent="1" vertex="1">
          <mxGeometry x="-10" y="-360" width="360" height="340" as="geometry" />
        </mxCell>
        <mxCell id="6MORBjaquWV6y_gQg165-5" value="&lt;font style=&quot;font-size: 20px;&quot;&gt;ALM_12 = 720min&lt;br&gt;EMG_20M = 20min&lt;br&gt;EMG_150H = 9000min&lt;br&gt;EMG_100H = 6000min&lt;/font&gt;" style="shape=parallelogram;html=1;strokeWidth=2;perimeter=parallelogramPerimeter;whiteSpace=wrap;rounded=1;arcSize=12;size=0.23;" parent="1" vertex="1">
          <mxGeometry x="-50" y="102.5" width="340" height="147.5" as="geometry" />
        </mxCell>
        <mxCell id="6MORBjaquWV6y_gQg165-6" value="&lt;font style=&quot;font-size: 15px;&quot;&gt;DO3:&amp;nbsp;External Alarm Relay Activation&lt;br&gt;DO4:&amp;nbsp;External Emergency Stop Relay Activation&lt;br&gt;DO5:&amp;nbsp;Alarm Status Indicator&lt;/font&gt;" style="shape=parallelogram;html=1;strokeWidth=2;perimeter=parallelogramPerimeter;whiteSpace=wrap;rounded=1;arcSize=12;size=0.23;" parent="1" vertex="1">
          <mxGeometry x="-460" y="-420" width="420" height="150" as="geometry" />
        </mxCell>
        <mxCell id="6MORBjaquWV6y_gQg165-8" value="&lt;font style=&quot;font-size: 17px;&quot;&gt;T1 : Temperature Sensor Inlet 1&lt;br&gt;T2: Temperature Sensor Inlet 2&lt;br&gt;P1: Pressure Sensor Inlet 1&lt;br&gt;P2: Pressure Sensor Outlet 1&lt;br&gt;P3: Pressure Sensor Inlet 2&lt;br&gt;P4: Pressure Sensor Outlet 2&lt;br&gt;&lt;/font&gt;" style="shape=parallelogram;html=1;strokeWidth=2;perimeter=parallelogramPerimeter;whiteSpace=wrap;rounded=1;arcSize=12;size=0.23;" parent="1" vertex="1">
          <mxGeometry x="-110" y="340" width="410" height="170" as="geometry" />
        </mxCell>
        <mxCell id="w5cMcJ5rvc0NHuunpyt4-10" style="edgeStyle=orthogonalEdgeStyle;rounded=0;orthogonalLoop=1;jettySize=auto;html=1;entryX=0.5;entryY=0;entryDx=0;entryDy=0;" edge="1" parent="1" source="w5cMcJ5rvc0NHuunpyt4-3" target="w5cMcJ5rvc0NHuunpyt4-6">
          <mxGeometry relative="1" as="geometry" />
        </mxCell>
        <mxCell id="w5cMcJ5rvc0NHuunpyt4-12" style="edgeStyle=orthogonalEdgeStyle;rounded=0;orthogonalLoop=1;jettySize=auto;html=1;entryX=0.5;entryY=0;entryDx=0;entryDy=0;" edge="1" parent="1" source="w5cMcJ5rvc0NHuunpyt4-3" target="w5cMcJ5rvc0NHuunpyt4-7">
          <mxGeometry relative="1" as="geometry">
            <Array as="points">
              <mxPoint x="1080" y="-370" />
              <mxPoint x="1340" y="-370" />
            </Array>
          </mxGeometry>
        </mxCell>
        <mxCell id="w5cMcJ5rvc0NHuunpyt4-3" value="&lt;font style=&quot;font-size: 20px;&quot;&gt;Types of Failure&lt;/font&gt;" style="rounded=1;whiteSpace=wrap;html=1;absoluteArcSize=1;arcSize=14;strokeWidth=2;" vertex="1" parent="1">
          <mxGeometry x="980" y="-500" width="200" height="100" as="geometry" />
        </mxCell>
        <mxCell id="w5cMcJ5rvc0NHuunpyt4-5" value="&lt;font style=&quot;font-size: 20px;&quot;&gt;Complete loss of Particulate Capture Function&lt;/font&gt;" style="rounded=1;whiteSpace=wrap;html=1;absoluteArcSize=1;arcSize=14;strokeWidth=2;" vertex="1" parent="1">
          <mxGeometry x="710" y="-330" width="200" height="100" as="geometry" />
        </mxCell>
        <mxCell id="w5cMcJ5rvc0NHuunpyt4-6" value="&lt;font style=&quot;font-size: 20px;&quot;&gt;Detection of Exhaust Bypass, Temporary/Permanent&lt;/font&gt;" style="rounded=1;whiteSpace=wrap;html=1;absoluteArcSize=1;arcSize=14;strokeWidth=2;" vertex="1" parent="1">
          <mxGeometry x="980" y="-330" width="200" height="100" as="geometry" />
        </mxCell>
        <mxCell id="w5cMcJ5rvc0NHuunpyt4-7" value="&lt;font style=&quot;font-size: 20px;&quot;&gt;Failure of RECD&lt;/font&gt;" style="rounded=1;whiteSpace=wrap;html=1;absoluteArcSize=1;arcSize=14;strokeWidth=2;" vertex="1" parent="1">
          <mxGeometry x="1240" y="-330" width="200" height="100" as="geometry" />
        </mxCell>
        <mxCell id="w5cMcJ5rvc0NHuunpyt4-11" style="edgeStyle=orthogonalEdgeStyle;rounded=0;orthogonalLoop=1;jettySize=auto;html=1;entryX=0.455;entryY=0.013;entryDx=0;entryDy=0;entryPerimeter=0;" edge="1" parent="1" source="w5cMcJ5rvc0NHuunpyt4-3" target="w5cMcJ5rvc0NHuunpyt4-5">
          <mxGeometry relative="1" as="geometry">
            <Array as="points">
              <mxPoint x="1080" y="-370" />
              <mxPoint x="801" y="-370" />
            </Array>
          </mxGeometry>
        </mxCell>
      </root>
    </mxGraphModel>
  </diagram>
</mxfile>
